<svg xmlns="http://www.w3.org/2000/svg" xmlns:xlink="http://www.w3.org/1999/xlink" version="1.1" x="0px" y="0px" viewBox="0 0 100 100" enable-background="new 0 0 100 100" xml:space="preserve">
    <path fill="#ffffff" d="M71.572,70.854l-11.374,6.549c-0.311,0.179-0.417,0.574-0.238,0.884c0.12,0.208,0.337,0.324,0.562,0.324  c0.109,0,0.22-0.027,0.322-0.086l11.374-6.55c0.311-0.178,0.417-0.573,0.238-0.883C72.278,70.783,71.882,70.677,71.572,70.854z"></path>
    <path fill="#ffffff" d="M60.418,72.605c0.12,0.208,0.338,0.324,0.562,0.324c0.109,0,0.221-0.028,0.322-0.087l8.918-5.135  c0.311-0.178,0.416-0.573,0.238-0.884c-0.179-0.31-0.574-0.415-0.884-0.237l-8.918,5.135C60.347,71.9,60.24,72.296,60.418,72.605z"></path>
    <path fill="#ffffff" d="M34.892,29.793c0.125,0.188,0.33,0.288,0.539,0.288c0.124,0,0.248-0.035,0.359-0.109  c0.297-0.198,0.377-0.6,0.178-0.896l-7.29-10.915c-0.198-0.297-0.601-0.377-0.897-0.179c-0.298,0.198-0.377,0.601-0.179,0.897  L34.892,29.793z"></path>
    <path fill="#ffffff" d="M33.151,33.179c0.125,0.188,0.33,0.288,0.539,0.288c0.124,0,0.248-0.035,0.359-0.109  c0.297-0.198,0.377-0.6,0.178-0.897l-5.716-8.557c-0.198-0.298-0.6-0.378-0.897-0.18c-0.297,0.199-0.377,0.601-0.179,0.898  L33.151,33.179z"></path>
    <path fill="#ffffff" d="M55.676,59.751l0.188-3.142c0-0.002,0.028-0.102,0.026-0.105l0.164-2.15l5.095,1.417  c0.563,0.158,1.098,0.002,1.252-0.559c0.157-0.562-0.22-0.971-0.781-1.127l-3.842-1.07c1.493-0.936,2.059-2.872,1.253-4.478  l-8.089-16.129c-0.113-0.225-0.248-0.433-0.4-0.62c-0.114-0.183-0.24-0.361-0.383-0.531c-1.815-2.215-5.083-2.536-7.297-0.72  l-12.417,10.19c-1.684,1.38-2.271,3.598-1.661,5.554c0.076,0.299,0.191,0.592,0.353,0.871l1.169,2.015l0.006,0.47l-5.876,6.122  c-1.57-1.312-3.441-2.308-5.539-2.892c-7.913-2.204-16.145,2.45-18.349,10.362c-2.203,7.913,2.441,16.148,10.354,18.351  c7.21,2.008,14.682-1.668,17.621-8.323l1.224,0.441c0.153,0.936,0.686,1.806,1.547,2.354c0.288,0.183,0.592,0.319,0.903,0.408  c1.434,0.414,3.026-0.141,3.872-1.464l3.139-4.92l14.454-8.495l1.127,17.121c0.029,0.459,0.35,0.831,0.772,0.948  c0.109,0.03,0.228,0.044,0.351,0.034c0.58-0.038,1.02-0.54,0.982-1.12L55.676,59.751z M11.563,79.212  c-6.606-1.839-10.483-8.71-8.645-15.314c1.839-6.607,8.708-10.483,15.314-8.644c1.692,0.469,3.204,1.273,4.486,2.314l-8.583,8.934  c-0.247,0.256-0.349,0.622-0.266,0.971c0.081,0.348,0.334,0.633,0.671,0.752l11.657,4.198  C23.697,77.876,17.523,80.871,11.563,79.212z M26.911,70.436l-10.125-3.645l7.453-7.757C26.88,62.055,28.017,66.29,26.911,70.436z   M30.239,71.277c-0.063,0.098-0.121,0.2-0.172,0.301l-0.953-0.339c0.004-0.015,0.008-0.03,0.013-0.045  c1.417-5.09,0.044-10.295-3.255-13.96l4.439-4.559l0.223,18.141L30.239,71.277z M32.687,67.44l-0.204-14.524l4.51,7.777  L32.687,67.44z M53.582,59.182l-11.821,6.895l2.192-3.437c0.696-1.09,0.725-2.477,0.076-3.596l-3.047-5.251l12.724,3.542  L53.582,59.182z M53.994,53.028l-0.028,1.651l-14.87-4.139l-1.373-2.369l9.486-7.785l5.64,11.25c0.277,0.549,0.679,0.99,1.152,1.313  C53.998,52.975,53.996,52.999,53.994,53.028z"></path>
    <path fill="#ffffff" d="M95.641,45.218c-2.812-2.812-6.549-4.359-10.524-4.359c-8.207,0-14.885,6.677-14.885,14.884  c0,8.208,6.678,14.885,14.885,14.885c3.684-0.001,5.759-2.881,7.591-5.423c0.585-0.812,1.138-1.577,1.726-2.245  c0.62-0.705,1.381-1.257,2.116-1.791c1.617-1.174,3.451-2.505,3.451-5.426C100,51.768,98.452,48.029,95.641,45.218z M95.137,59.225  c-0.802,0.582-1.711,1.242-2.508,2.146c-0.666,0.757-1.278,1.606-1.871,2.429c-1.64,2.275-3.188,4.424-5.642,4.425  c-6.882,0-12.48-5.599-12.48-12.481c0-6.882,5.599-12.481,12.48-12.481c3.334,0,6.468,1.298,8.825,3.655s3.655,5.492,3.655,8.826  C97.597,57.363,96.753,58.052,95.137,59.225z"></path>
    <circle fill="#ffffff" cx="55.445" cy="25.414" r="5.531"></circle>
</svg>